<?xml version="1.0" encoding="UTF-8"?>
<svg xmlns="http://www.w3.org/2000/svg" viewBox="0 0 522 2220" width="522" height="2220">
  <path fill="#607088" fill-rule="evenodd" d="M176.5 40L350.5 40Q353.7 45.3 360.5 47L372 58.5L391 81.5L392 85.5L397 90.5Q399.2 98.3 405 102.5L407 108.5L411 112.5L412 117.5L416 121.5L417 126.5L424 135.5L427 141.5L427 144.5L431 149.5L433 157.5L437 162.5L437 165.5Q443.7 176.8 447 191.5L449 193.5L449 198.5L453 207.5L460 237.5L463 244.5L464 253.5L466 257.5L466 263.5L468 267.5L468 271.5L470 275.5L471 284.5L475 298.5L475 303.5L482 338.5L482 346.5L485 353.5L485 364.5L486 365.5L486 372.5L487 373.5L492 414.5L491 416.5L493 419.5L495 437.5L494 440.5L496 442.5L498 462.5L497 466.5L500 477.5L503 511.5L502 514.5L504 517.5L505 543.5L507 553.5L510 635.5L511 636.5L511 656.5L512 657.5L512 676.5L513 677.5L513 698.5L514 699.5L514 728.5L515 729.5L515 747.5L516 748.5L516 763.5L517 768.5L516 772.5L517 773.5L517 810.5L518 811.5L518 901.5L519 903.5L518 904.5L517 1054.5L515 1057.5L515 1085.5L513.5 1087L473.5 1087L472 1085.5L472 751.5L468 745.5L468 742.5L465 739.5L465 736.5L459 729.5L456 723.5L456 720.5L451 714.5Q454.2 712.2 453 705.5L451 703.5L451 603.5L452 602.5L453 572.5L452 571.5L452 542.5L451 541.5L451 501.5L449.5 500L427.5 500L425.5 499L422.5 502L409.5 502L407 499.5L407 372.5L400 353.5L399 346.5L397 344.5L396 337.5L392 329.5L391 322.5L388 318.5Q388 312.5 385 309.5L385 305.5L383 303.5L381 293.5L377 285.5L377 281.5L373.5 278L275.5 278L274.5 279L273.5 278L151.5 278L149 280.5L144 297.5L140 304.5L140 308.5L126 348.5L126 351.5L124 353.5L124 356.5L118 371.5L118 450.5L117 451.5L117 471.5L118 472.5L118 497.5L114.5 502Q102.9 504.1 98.5 499L97.5 500L75.5 500L74 501.5L74 639.5Q71.3 641.3 73 647.5L74 648.5L74 659.5L73 660.5L73 716.5L53 750.5L53 1085.5L51.5 1087L11.5 1087L10 1085.5L10 1067.5L9 1066.5L9 999.5Q11.7 997.8 10 991.5L8 983.5L7 887.5L8 886.5L8 876.5L7 874.5L8 873.5L8 808.5Q10.8 807.8 10 803.5L9 802.5L9 772.5L10 771.5L10 742.5L11 741.5L11 716.5L12 715.5L12 694.5L13 693.5L13 671.5L14 670.5L16 614.5L15 611.5L17 602.5L17 585.5L18 584.5L18 568.5L19 567.5L19 538.5L22 521.5L21 516.5L23 510.5L23 495.5Q26.4 487.9 25 475.5L27 470.5L28 461.5L27 457.5L29 455.5L29 439.5L31 436.5L31 424.5L33 422.5Q31.8 412.3 35 406.5L35 392.5L38 382.5L37 378.5L39 374.5L39 360.5L41 358.5L41 349.5L43 346.5L45 325.5L47 320.5L47 312.5L49 310.5Q47.8 302.8 51 299.5L51 291.5L54 283.5L54 278.5L57 270.5L57 265.5L59 262.5L59 256.5L61 248.5L63 245.5L62 243.5L65 232.5L67 230.5L67 224.5L70 218.5L69 216.5L71 214.5L79 186.5L82 182.5L85 169.5L89 165.5L89 161.5L92 156.5L92 152.5Q95.2 150.7 95 145.5L100 139.5L113 113.5L129 91.5L129 89.5L140 73L146 68.5L146 66.5L162.5 49L164.5 49L176.5 40Z M411 451L421.5 451L422 453Q419 452 420 455L424 456.5L424 474.5L423 476.5L424 477.5L424 496.5L421.5 498L417.5 494L415.5 494L410.5 498L409 496.5L409 457.5Q412.3 456.1 411 451Z M103.5 453L110.5 453Q111.8 456 116 455L116 495.5L114.5 497L107.5 494Q106.1 498.8 101 498L101 461.5L102 459.5L101 456.5L103.5 453Z M37 990L47.5 990L49 991.5L50 993.5L50 1035.5L49 1040L37.5 1040L36 1038.5L35 1036.5L35 995.5L38 992.5L37 991.5L37 990Z M479.5 992L487.5 992L489 993.5L490 997.5L489 999.5Q491.5 1001 490 1006.5Q488.6 1009.3 484 1008L484 1010L489 1010L489 1013.5L490 1017.5L489 1022.5L490 1024.5L488 1028.5L489 1035Q486.3 1033.9 487 1036.5Q490.8 1038.3 487.5 1040L475.5 1040L475 1037.5L475 1035.5L476 1020.5L475 1018.5L476 1016.5L475 1015.5L475 1005.5L476 1003.5L475 1002.5L475 994.5L479.5 992Z M225.5 400L233.5 401L234.5 400L267.5 400L269 402.5Q267.8 405.3 266.5 403L259.5 402L255.5 403L248.5 409L224.5 409Q219.7 407.4 221 401L225.5 400Z M259.5 962Q262.1 961.3 261 964L254 965Q252.7 961.3 258.5 963L259.5 962Z M270.5 962L287.5 962L294 964.5L292.5 967L289.5 965Q282.7 966.3 279.5 964Q276 965.3 277 970Q273.3 971.4 275 965.5Q273.6 962.9 269 963.5L270.5 962Z M291 976L294 977.5L295.5 981L345.5 981L347 982.5L345.5 984L293.5 984L290 987.5Q287.3 991.3 289 999.5L286.5 1002L257.5 1002L254.5 1004L250 1000.5Q251.8 997.3 258.5 999L261.5 1000L264.5 998L267.5 999L270.5 997Q271.8 1000.3 277.5 999Q281.8 997.7 281 993L258.5 993L253.5 989L246.5 989L244.5 987L237 985.5L274.5 985L276 983.5L275.5 982L179.5 982L179.5 981L242.5 981L245.5 979L288.5 979L291 978L291 976Z M382 1153L387 1156.5L384 1163.5L389 1168.5L390 1179.5L386 1183.5L386 1185.5Q392.5 1188 390 1199.5L386 1203.5L385 1208.5L386.5 1210L397.5 1210Q400 1209 399 1204.5L398 1202.5L399 1200.5L397 1196.5Q399.2 1195.3 398 1190.5Q394.5 1190 395 1185.5L398 1182.5L398 1172L401 1173.5L401 1212.5L399.5 1214L383.5 1214L382 1212.5L383 1210.5L383 1178.5L382 1177.5L382 1153Z M284.5 1338L289 1341.5L289 1353.5L290.5 1355L327 1355.5L296.5 1356L292.5 1359L236.5 1359L234 1358L236 1352.5L236 1343.5L234 1340.5L235.5 1339L283.5 1339L284.5 1338Z M98.5 1674L104.5 1674L111 1680.5L111 1684.5L104.5 1695L97.5 1698L91.5 1696L89 1693.5L89 1685.5L98.5 1674Z M110 1707Q113.8 1705.5 113 1708.5L111 1710.5L110 1716.5L111.5 1718L178.5 1718L181 1720.5L183 1725.5L180.5 1727L177.5 1723L109.5 1723L108 1724.5L106.5 1727Q103.1 1727.9 105 1722.5L101 1717.5L101 1713.5Q104.8 1712.2 104 1708L108.5 1710L110 1707Z M219.5 1794L224.5 1794Q226.2 1796.8 231.5 1796Q233.8 1801.7 241.5 1802Q242.5 1798 248.5 1799L258.5 1801L264.5 1796L277.5 1794Q278.9 1796.6 283.5 1796L286 1798.5L289 1806.5L289 1811.5L288 1812.5L288 1821.5L296.5 1830L302.5 1832L310.5 1832L311.5 1833L340.5 1833L342 1834.5L344 1838.5L342.5 1839L339.5 1834L293.5 1834L291.5 1836L287.5 1836L284.5 1838L276.5 1839L274.5 1841L268.5 1841L263.5 1843Q262.3 1840.8 261 1843.5L261 1846.5L266.5 1852Q268.8 1852.8 268 1850.5L265 1846L269 1847Q267.9 1844.3 270.5 1845L273.5 1846L277 1845L278.5 1848L282.5 1846L284.5 1847L287.5 1845L291 1847.5L290 1851L293.5 1850L295 1852.5L291 1857.5Q295.3 1858.8 294 1865.5Q290 1866.5 291 1872.5Q294.5 1873 294 1877.5L290.5 1884L285.5 1880L285 1881.5L286 1885L280 1883L281 1888.5L271.5 1893L265.5 1888L270 1893.5L267.5 1897L265.5 1897L251.5 1906Q249.3 1905.3 250 1901.5L254 1898.5L258 1888.5L254.5 1887L248 1892.5L249 1901.5Q246.3 1902.6 247 1906Q244 1907.3 245 1903.5L246 1901L241 1904.5L239.5 1908Q236.7 1904.3 230.5 1904Q229 1908.5 221.5 1907L216.5 1903Q214.6 1906.6 208.5 1906Q205.3 1904.3 205 1899.5Q208.7 1895.7 209 1888.5L208 1885.5L209 1883L205 1881.5L202 1875.5Q206 1874.5 205 1868.5L202 1864Q206.5 1865.5 205 1861Q201.2 1862.5 202 1859.5L206.5 1854L208.5 1854L215 1847.5L213.5 1845L206.5 1844L205 1842.5L205 1838.5L200.5 1834L184 1833.5L186.5 1832L197.5 1831L207 1822.5L206 1807.5L209 1798.5L211.5 1796Q217.5 1797 219.5 1794Z M269.5 1905Q282 1903 287.5 1908L309.5 1908L315 1906L312.5 1910L310.5 1911L274.5 1911L273 1912.5L273 1924.5L271.5 1925L270.5 1926L253.5 1926L252 1924.5L258 1918.5L258 1916.5L252.5 1911L241.5 1911L241 1909.5Q242.3 1906.8 247.5 1908L249.5 1909L251.5 1908L257.5 1914L259 1912.5Q258 1908 260.5 1907L269.5 1905Z M276.5 2048L317.5 2048L319 2049.5L317.5 2051L282.5 2051L280 2053.5L280 2079.5L281.5 2081Q286.9 2079.1 286 2082.5Q285 2085 280.5 2084L275.5 2082L271.5 2084L183.5 2084Q180.5 2082.5 183.5 2081L271.5 2081L275 2077.5L276 2075.5L276 2053.5L275 2049.5L276.5 2048Z"/>
  <path fill="#8ca0bc" fill-rule="evenodd" d="M275.5 278L288.5 278L289 279.5L290.5 281L306.5 281L308 282.5L308 439.5L305.5 442L218.5 442L217 440.5Q217.8 436.8 215.5 436L214 437.5L214 550.5L211.5 553L185.5 553L184 551.5L184 507.5L183 504.5L184 503.5L184 491.5L183 488.5L184 487.5L184 457.5Q181.8 456.3 183 451.5L184 450.5L184 438.5L181.5 437L180 438.5L180 477.5L178.5 479L134.5 479L133 477.5L133 380.5L134.5 379L178.5 379L180 380.5L180 419.5L181.5 421L184 418.5L184 401.5L183 400.5L183 382.5Q185.5 381 184 375.5L183 370.5L184 368.5Q181.3 366.8 183 360.5L184 359.5L184 321.5L183 317.5L185.5 315L212.5 315L214 316.5L214 392L217 390.5L217 282.5L218.5 281L272.5 281L275.5 278Z M225.5 400L233.5 401L234.5 400L267.5 400L269 402.5Q267.8 405.3 266.5 403L259.5 402L255.5 403L248.5 409L224.5 409Q219.7 407.4 221 401L225.5 400Z M411 451L421.5 451L422 453Q419 452 420 455L424 456.5L424 474.5L423 476.5L424 477.5L424 496.5L421.5 498L417.5 494L415.5 494L410.5 498L409 496.5L409 457.5Q412.3 456.1 411 451Z M103.5 453L110.5 453Q111.8 456 116 455L116 495.5L114.5 497L107.5 494Q106.1 498.8 101 498L101 461.5L102 459.5L101 456.5L103.5 453Z M383.5 545L447.5 545L449 546.5L450 548.5L450 566.5L449 571.5Q455 573.5 453 583.5L452 588L449 589.5L450 598.5L447.5 601L383.5 601L382 599.5L382 546.5L383.5 545Z M157.5 937L184.5 937L186 938.5L186 956.5L187.5 958L199.5 958L201 956.5L201 946.5L202.5 945Q211 947 213 942.5Q212 938 214.5 937L228.5 937L231 939.5Q230.3 944.3 233.5 945L290.5 945L293 942.5Q292 938 294.5 937L323.5 937L325 938.5L325 956.5L326.5 958L338.5 958L340 956.5L340 938.5L341.5 937L368.5 937L370 938.5L370 979.5L367.5 982Q362.2 981.2 361.5 985L349.5 985L347 984L345.5 981L295.5 981L294 979.5L292.5 976L289.5 978L288.5 979L245.5 979L242.5 981L179.5 981L178 982.5L177.5 985L165.5 985L162.5 982Q157.3 983.3 156 980.5L156 938.5L157.5 937Z M259.5 962Q262.1 961.3 261 964L254 965Q252.7 961.3 258.5 963L259.5 962Z M270.5 962L287.5 962L294 964.5L292.5 967L289.5 965Q282.7 966.3 279.5 964Q276 965.3 277 970Q273.3 971.4 275 965.5Q273.6 962.9 269 963.5L270.5 962Z M104.5 985Q114 983.5 119.5 986L122.5 985Q123.7 987.3 128.5 986L129.5 985L140.5 985L144 987.5L143 991.5L146 993L146 1007.5L144.5 1008L141.5 1016L129.5 1016L128 1017.5L128 1118.5L126.5 1120L99.5 1120L98 1118.5L98 1083.5L96.5 1082Q92 1083 91 1080.5L91 1060.5L92.5 1059Q97.3 1059.8 98 1056.5L98 987.5L99.5 986L104.5 985Z M383.5 985L400.5 986L401.5 985L413.5 985L415.5 986L416.5 985L425.5 985L427 986.5L427 1052.5L428.5 1054Q433 1053 434 1055.5L435 1061.5L434 1064.5L435 1066.5L432.5 1073Q428 1072 427 1074.5L427 1117.5L424.5 1120Q418.7 1117.9 420 1122.5L427 1125.5L427 1206.5L428.5 1208Q433.8 1206.8 435 1209.5Q434 1214 436.5 1215L439.5 1208L481.5 1208L483 1209.5L483 1239.5L484.5 1241Q489 1240 490 1242.5L490 1267.5Q495.8 1271.2 494 1282.5L490 1288.5L490 1321.5L488.5 1323Q484 1322 483 1324.5L483 1353.5L480.5 1356L439.5 1356L438 1354.5Q439 1350 436.5 1349L433.5 1356L420.5 1356L420 1358.5L421.5 1360L433.5 1360Q435 1357.5 440.5 1359L441.5 1360L506.5 1360L508 1361.5L508 1576.5L505.5 1579L480.5 1579L478 1576.5Q479 1572 476.5 1571Q474 1572 475 1576.5L472.5 1579L416.5 1579L415 1580.5L415 1592.5L416.5 1593L418 1591.5L418 1583.5L419.5 1582L446.5 1582L449 1584.5L449 1680.5L450.5 1682L453 1683.5L453 1861.5L454.5 1863Q459 1862 460 1864.5L460 1878.5L457.5 1881Q453.8 1880.3 453 1882.5L453 2046.5L450.5 2049Q446 2048 445 2050.5L446.5 2052L504.5 2052L506 2053.5L502 2073.5L497.5 2082L444.5 2082L443 2083.5Q444.4 2086.3 449 2085L448 2094.5L439 2125.5L427 2176.5Q424 2180.5 424 2187.5L420.5 2192L394.5 2192L393 2190.5L401 2159.5L401 2154Q398.3 2152.9 399 2155.5L390 2188.5L386.5 2192L306.5 2192L305 2190.5L305 2151.5L307.5 2149L331.5 2150Q333 2147.5 338.5 2149L339.5 2150L352.5 2150L353.5 2149L363.5 2149L365 2147.5L363.5 2146L303.5 2146Q299.9 2150.9 301 2160.5L302 2161.5L302 2175.5Q299.5 2177 301 2182.5Q303.5 2184 302 2189.5L299.5 2192L246.5 2192L245 2190.5L245 2141.5L242.5 2139L185.5 2139L185 2142L188.5 2143L220.5 2143L222 2144.5L222 2189.5L219.5 2192L136.5 2192L134 2189.5L130 2170.5L127.5 2167Q124.5 2166.1 126 2170.5L131 2190.5L129.5 2192L105.5 2192L101 2189.5L75 2086.5L82 2083.5L75 2080.5L75 1978.5L73.5 1977Q69 1978 68 1975.5L67 1955.5Q68 1953 72.5 1954L75 1951.5L75 1746.5L73.5 1745Q69 1746 68 1743.5L67 1726.5L68 1722Q73.5 1723.3 75 1719.5L75 1583.5L76.5 1582L102.5 1582L104 1583.5L105 1585.5L105 1638.5L104 1639.5L104 1647.5L107 1649L108 1646.5L108 1583.5L109.5 1582L151.5 1582L153 1580.5L146 1577.5L146 1535.5L147.5 1534L167.5 1534L178.5 1532L180 1533.5L181 1554L183 1553.5L183 1499L236.5 1499L239 1501.5L239 1595.5L241.5 1598L259.5 1598L261 1599.5L262.5 1602L277.5 1602L281.5 1598L336.5 1598L339.5 1604L341 1602.5L341 1582.5L342.5 1581L380.5 1581L382 1582.5Q380.8 1586.3 384.5 1585Q387 1584 386 1579.5L385 1576.5L386 1575.5L386 1547.5L383.5 1545L361.5 1544L360 1542.5L359 1539.5L362 1533.5Q359.3 1532.8 360 1528.5L362.5 1525Q368 1523.5 369.5 1526L407.5 1526L411.5 1525L415 1521.5L415 1500.5L416.5 1499Q421 1500 422 1497.5L415 1493.5L415 1394.5L416.5 1393L473.5 1393L475 1394.5L475 1405.5L476.5 1407L478 1405.5L478 1391.5L476.5 1390L401.5 1390L397.5 1397L379.5 1397L378 1395.5Q379 1390 375.5 1389L364.5 1390L361 1387.5Q362 1383 359.5 1382L358 1383.5L358 1403.5L355.5 1406L289.5 1406L288 1404.5L288 1391.5L286.5 1390L281.5 1389L277.5 1390L273.5 1389L272.5 1390L264 1390L264 1406.5L261.5 1409L207.5 1408L206.5 1409L192.5 1409L189.5 1408L188.5 1409L165.5 1409L164 1407.5L164 1383.5L162.5 1382L158.5 1389L147.5 1390L146 1391.5Q146.8 1396.3 143.5 1397L125.5 1397L123 1394.5Q124 1390 121.5 1389L93.5 1389L92 1390.5L93.5 1392L105.5 1392L108 1394.5L107 1398.5L107 1400.5L107 1464.5L104.5 1467L74.5 1467L73 1468.5L74.5 1470L105.5 1470L107 1471.5L107 1543.5L105.5 1545L93.5 1546L89.5 1545Q88.3 1547.3 83.5 1546L82.5 1545L74.5 1545L73 1547.5L74.5 1549L105.5 1549L107 1550.5L107 1576.5L104.5 1579L15.5 1579L14 1577.5L14 1361.5L15.5 1360L90.5 1360L93.5 1359L94.5 1360L102.5 1360Q107 1358 103.5 1356L91.5 1356L90 1354.5Q91 1350 88.5 1349L84.5 1356L43.5 1356L42 1354.5L42 1324.5L40.5 1323Q35.3 1324.3 34 1321.5L35 1319.5L35 1298.5L31 1275.5L34 1268.5L35 1254.5L34 1251.5Q36.5 1250 35 1244.5L34 1242.5Q35 1240 39.5 1241L42 1238.5L42 1209.5L43.5 1208L85.5 1208L87 1209.5L87 1239.5L88.5 1241Q93 1240 94 1242.5Q92.7 1253.5 95 1259L98 1257.5L98 1244.5L99.5 1243L126.5 1243L128 1244.5L128 1324.5L129.5 1326L141.5 1326L143 1327.5L143 1353.5L140.5 1356L121.5 1356L120 1357.5L123.5 1360L152.5 1360L155.5 1359L161 1361.5Q160.3 1365.3 162.5 1366L165.5 1360L170.5 1359L171.5 1360L228.5 1360L233.5 1357L236.5 1359L346.5 1360L349.5 1359Q351 1361.5 356.5 1360L358 1361.5Q357.3 1365.3 359.5 1366L362.5 1360L383.5 1360L386.5 1359L387.5 1360L400.5 1360L404 1357.5L402.5 1356L384.5 1356L382 1355L382 1327.5L383.5 1326L394.5 1326L397 1323.5L397 1244.5L398.5 1243L426.5 1243L428 1244.5L428 1258.5L429.5 1259L431 1257.5L431 1242.5L432.5 1241Q437.3 1241.8 438 1238.5Q439.5 1232.5 436.5 1231L432.5 1238Q426.5 1237 424.5 1240L399.5 1240L396.5 1238L383.5 1238L382 1236.5L382.5 1213L383.5 1214L399.5 1214L401 1212.5L401 1173.5L398 1172L398 1182.5Q394.5 1183 395 1187.5Q399.3 1188.8 398 1195.5L397 1198.5L399 1201.5L398 1203.5L399 1208.5L397.5 1210L386.5 1210L385 1207.5L386 1203.5L390 1199.5L390 1189.5L386 1185.5L386 1183.5L390 1179.5L390 1176.5Q387.3 1174.8 389 1168.5L384 1163.5L384 1161.5L387 1156.5L382 1153L382 1126.5L383.5 1125L394.5 1125L404 1121.5L397 1118.5L397 1017.5L395.5 1016L383.5 1016L382 1014.5Q383.3 1009.3 380.5 1008L378 1006.5L378 993.5L379.5 992L382 990.5Q381 986 383.5 985Z M65.5 1389L77 1390.5L74.5 1393L48.5 1393L47 1394.5L47 1465.5L48.5 1467Q55.3 1465.2 57 1468.5L55.5 1470Q48.8 1468.3 47 1471.5L47 1483.5L44 1484L44 1391.5L45.5 1390L64.5 1390L65.5 1389Z M476.5 1423L478 1424.5L478 1472.5L479 1476.5L478 1477.5L478 1555Q473.5 1556.8 475 1551.5L472.5 1549L446.5 1549L445 1547.5L445 1500.5L443.5 1499Q438.3 1500.3 437 1497.5Q438 1495 442.5 1496L445 1493.5L445 1475.5L446.5 1474L472.5 1474L475 1471.5L475 1424.5L476.5 1423Z M181.5 1571L183 1572.5L183 1583.5L185.5 1586L207.5 1586L209 1587.5L209 1625.5L211.5 1628L332.5 1628L333 1629.5L331.5 1631L294.5 1631L293 1632.5L293 1666.5L290.5 1669L184.5 1669L183 1670.5L183 1697.5L181.5 1699L180 1698.5L180 1583.5L178.5 1582L170.5 1582L169 1580.5L169.5 1579L177.5 1579L180 1576.5Q179 1572 181.5 1571Z M392.5 1609L407.5 1610L411 1612.5L410 1619.5L411 1620.5L412 1638.5L413.5 1640Q417.3 1639.3 418 1641.5L418 1679.5L419.5 1681L423 1682.5L423 1724.5L421.5 1726L419 1724.5L417.5 1722L348.5 1722L347 1723.5L345.5 1726L344 1724.5L344 1634.5L345 1631.5L338 1628.5Q336.5 1622.5 339.5 1621L341 1621.5L341 1627L346.5 1627L353.5 1629L381.5 1629L383 1627.5Q381.5 1616 385.5 1610Q391 1611.5 392.5 1609Z M98.5 1674L104.5 1674L111 1680.5L111 1684.5L104.5 1695L97.5 1698L91.5 1696L89 1693.5L89 1685.5L98.5 1674Z M110 1707Q113.8 1705.5 113 1708.5L111 1710.5L110 1716.5L111.5 1718L178.5 1718L181 1720.5L183 1725.5L180.5 1727L177.5 1723L109.5 1723L108 1724.5L106.5 1727Q103.1 1727.9 105 1722.5L101 1717.5L101 1713.5Q104.8 1712.2 104 1708L108.5 1710L110 1707Z M105 1742L108 1743.5L108 1758.5L109.5 1760L178.5 1760L180 1758.5L180 1743.5L181.5 1742L183 1743.5L183 1777.5L185.5 1780L205.5 1780L207 1781.5L207.5 1785L317.5 1785L320.5 1780L341.5 1780L344 1777.5L344 1743.5L345.5 1742Q349.5 1743.5 348 1750.5L347 1753.5L349.5 1760L416.5 1760L419 1757.5L420 1754.5L420 1742L423 1743.5L423 1835.5L421.5 1837L417.5 1834L346.5 1834L344 1839L341 1837.5L339.5 1834L293.5 1834L291.5 1836L287.5 1836L284.5 1838L276.5 1839L274.5 1841L268.5 1841L263.5 1843Q262.3 1840.8 261 1843.5L261 1846.5L266.5 1852Q268.8 1852.8 268 1850.5L265 1846L269 1847Q267.9 1844.3 270.5 1845L273.5 1846L277 1845L278.5 1848L282.5 1846L284.5 1847L287.5 1845L291 1847.5L290 1851L293.5 1850L295 1852.5L291 1857.5Q295.3 1858.8 294 1865.5Q290 1866.5 291 1872.5Q294.5 1873 294 1877.5L290.5 1884L285.5 1880L285 1881.5L286 1885L280 1883L281 1888.5L271.5 1893L265.5 1888L270 1893.5L267.5 1897L265.5 1897L251.5 1906Q249.3 1905.3 250 1901.5L254 1898.5L258 1888.5L254.5 1887L248 1892.5L249 1901.5Q246.3 1902.6 247 1906Q244 1907.3 245 1903.5L246 1901L241 1904.5L241 1906.5L236.5 1912L183 1912L183 2006.5L181.5 2007L177.5 2003L175.5 2003L174.5 2004L109.5 2004L108 2005.5L106.5 2008L105 2006.5L105 1854L108 1855.5L108 1870.5L109.5 1872L177.5 1872L180 1869.5L180 1854.5L181.5 1854L183 1855.5L183 1907.5L184.5 1909L200.5 1909L205.5 1908L208 1905.5L205 1899.5Q208.7 1895.7 209 1888.5L208 1885.5L209 1883L205 1881.5L202 1875.5Q206 1874.5 205 1868.5L202 1864Q206.5 1865.5 205 1861Q201.2 1862.5 202 1859.5L206.5 1854L208.5 1854L215 1847.5L213.5 1845L206.5 1844L205 1842.5L205 1838.5L200.5 1834L183.5 1834L183 1836.5L181.5 1838L177.5 1834L109.5 1834L105.5 1838L104 1831.5L105 1830.5L105 1765.5Q102.8 1764.3 104 1759.5L105 1758.5L105 1742Z M420.5 1853L423 1854.5L423 2047.5L424.5 2049Q429 2048 430 2050.5L428.5 2052L335.5 2052Q332.5 2050.5 335.5 2049Q341 2050 342 2046.5L342 1940.5L343.5 1939L345 1940.5L345 1949.5L346.5 1951L370.5 1951L372 1949.5L373 1946.5L373 1876.5L374.5 1875L416.5 1875L419 1872.5L420 1857.5L419 1854.5L420.5 1853Z M269.5 1905Q282 1903 287.5 1908L309.5 1908L315 1906L312.5 1910L310.5 1911L274.5 1911L273 1912.5L273 1924.5L271.5 1925L270.5 1926L253.5 1926L252 1924.5L258 1918.5L258 1916.5L252.5 1911L241.5 1911L241 1909.5Q242.3 1906.8 247.5 1908L249.5 1909L251.5 1908L257.5 1914L259 1912.5Q258 1908 260.5 1907L269.5 1905Z M106.5 2024L108 2025.5L108 2080.5L109.5 2082L167.5 2082L168 2083.5L166.5 2085L109.5 2085L108 2086.5L114 2110.5Q112.5 2113.5 111 2110.5L106 2089.5L103.5 2085Q98.3 2086.3 97 2083.5Q98 2081 102.5 2082L105 2079.5L105 2025.5L106.5 2024Z M276.5 2048L317.5 2048L319 2049.5L317.5 2051L282.5 2051L280 2053.5L280 2079.5L281.5 2081Q286.9 2079.1 286 2082.5Q285 2085 280.5 2084L275.5 2082L271.5 2084L183.5 2084Q180.5 2082.5 183.5 2081L271.5 2081L275 2077.5L276 2075.5L276 2053.5L275 2049.5L276.5 2048Z M236 986L244.5 987L246.5 989L253.5 989L258.5 993L281 993Q281.8 997.7 277.5 999Q271.5 1000 269.5 997L265.5 999L263.5 998L259.5 1000Q257.8 997.2 251.5 999L249.5 1001L237.5 1001L236 997.5L237 996.5L237 988.5L236 986Z M37 990L47.5 990L49 991.5L50 993.5L50 1035.5L49 1040L37.5 1040L36 1038.5L35 1036.5L35 995.5L38 992.5L37 991.5L37 990Z M479.5 992L487.5 992L489 993.5L490 997.5L489 999.5Q491.5 1001 490 1006.5Q488.6 1009.3 484 1008L484 1010L489 1010L489 1013.5L490 1017.5L489 1022.5L490 1024.5L488 1028.5L489 1035Q486.3 1033.9 487 1036.5Q490.8 1038.3 487.5 1040L475.5 1040L475 1037.5L475 1035.5L476 1020.5L475 1018.5L476 1016.5L475 1015.5L475 1005.5L476 1003.5L475 1002.5L475 994.5L479.5 992Z M174.5 1044Q177.5 1046 177 1051.5Q172.9 1053.4 174 1060.5L176 1067.5L175 1071.5L176 1075.5L175 1078.5Q177.2 1079.7 176 1084.5L175 1085.5L175 1094.5L172.5 1097L163.5 1098L160 1092.5L160 1079.5Q155.3 1077.5 157 1070L160 1068.5L160 1065L157 1064.5L157 1055.5L158 1053.5L157 1051.5Q159.8 1048.3 165.5 1048L167.5 1049L174.5 1044Z M351.5 1047Q356.8 1046.2 358.5 1049Q359.5 1046 364.5 1047Q366.8 1047.8 366 1051.5L365 1052.5L365 1095.5L363.5 1097L351.5 1097L350 1095.5L349 1093.5L349 1080.5L348 1079.5L348 1051.5L351.5 1047Z M99.5 1124L128.5 1124L129.5 1125L142 1125L142 1165.5L143 1167.5L141 1172.5L143 1176.5L142 1179.5L143 1181.5Q140.2 1183.2 141 1188.5Q144.8 1191.7 143 1200.5Q139.2 1205.5 139 1213L142 1214.5L142 1236.5L140.5 1238L128.5 1238L125.5 1240L99.5 1240L90 1236.5L91 1225.5L90 1222.5L91 1220.5L90 1219.5L90 1209.5Q91 1207 95.5 1208L98 1205.5L98 1125.5L99.5 1124Z M174.5 1248L177 1248L177 1254.5Q173.5 1256 175 1262.5Q177.2 1263.8 176 1268.5L175 1269.5L175 1279.5L176 1281.5L175 1285.5L176 1289.5Q173.7 1290.8 175 1295.5L173.5 1297L162.5 1298L160 1292.5L159 1281.5L160 1280.5L160 1272.5L157 1271L157 1253.5L158.5 1253Q159.8 1255.3 161 1252.5L162.5 1250Q164.2 1252.8 169.5 1252L174.5 1248Z M350.5 1252L353.5 1252L355.5 1254L361.5 1255L363 1256.5L365 1263.5L365 1294.5L362.5 1297L350.5 1297L349 1295.5L348 1286.5L349 1281.5L348 1280.5L348 1256.5L350.5 1252Z"/>
  <path fill="#06080c" fill-rule="evenodd" d="M213 278L273.5 278L274 279.5L272.5 281L218.5 281L217 282.5L217 390.5L215.5 392L214 391.5L214 316.5L212.5 315L185.5 315Q182.3 315.8 183 320.5L184 321.5L184 359.5Q181.3 361.3 183 367.5L184 369.5L183 374.5Q185.5 376 184 381.5L183 382.5L183 400.5L184 401.5L184 418.5Q182 423 180 419.5L180 380.5L178.5 379L134.5 379L133 380.5L133 477.5L134.5 479L178.5 479L180 477.5L180 438.5L181.5 437L184 438.5L183 456.5L184 457.5L184 487.5L183 490.5L184 491.5L184 503.5L183 506.5L184 507.5L184 551.5L185.5 553L211.5 553L214 550.5L214 437.5L215.5 436L218.5 442L305.5 442L308 439.5L308 282.5L306.5 281L290.5 281L289 279.5L289.5 278L311.5 278L311 279.5L311 321.5L312 322.5L311 325.5L312 329.5L311 330.5L311 386.5L311 390.5L311 443.5L309.5 445L217 445L217 488.5L216 491.5L217 493.5L216 495.5Q218.7 497.2 217 503.5L216 504.5L216 512.5L217 513.5L217 535.5L216 537.5L217 539.5L216 542.5L217 547.5L216 551.5L216 553.5L214.5 556L181.5 556L180 554.5L180 483.5L178.5 482L142.5 482L140.5 483Q138.7 480.2 132.5 482L130.5 483L129 481.5L129 376.5L130.5 375L178.5 375L180 373.5L180 312.5L181.5 311L211.5 311L213 309.5L213 278Z M379.5 541L450.5 541L452 542.5L452 571.5L453 574.5L449 571.5L450 566.5L450 548.5L447.5 545L383.5 545L382 546.5L382 599.5L383.5 601L447.5 601L450 598.5L449 589.5L452 588L452 602.5L450.5 604L379.5 604L378 602.5L378 542.5L379.5 541Z M153.5 933L187.5 933L189 934.5L189 953.5L190.5 955Q195.8 956.3 197 953.5L198 944.5L197 942.5L198.5 941L207.5 941L209 939.5Q208 935 210.5 934L232.5 934L234 935.5Q233 940 235.5 941L288.5 941L290 939.5Q288.8 934.3 291.5 933L326.5 933L328 934.5L328 953.5L329.5 955Q335.5 956.5 337 953.5L336 945.5L337 944.5L337 936.5L336 934.5L337.5 933L373 933L373 980.5L374.5 981L375.5 982L430 982L430 1049.5L431.5 1051Q436.8 1049.8 438 1052.5Q435.5 1058 437 1067.5Q439.5 1069 438 1074.5L430 1077.5L430 1202.5L431.5 1204L484.5 1204L486 1205.5L486 1236.5L487.5 1238L492.5 1237L494 1238.5L494 1259L491 1258.5L491 1241.5Q489.1 1238.3 483 1240L483 1209.5L481.5 1208L439.5 1208L438 1209.5Q439 1214 436.5 1215L433.5 1208Q428.3 1209.3 427 1206.5L427 1125.5L425.5 1124Q421 1125 420 1122.5Q418.7 1117.9 424.5 1120L427 1117.5L427 1074.5L428.5 1073Q433 1074 434 1071.5L435 1065.5L434 1062.5L435 1058.5L432.5 1054Q428 1055 427 1052.5L427 986.5L425.5 985Q418 983.5 414.5 986L413.5 985L401.5 985L400.5 986L392.5 986L391.5 985L383.5 985L380.5 992Q377.1 992.9 379 987.5L376.5 985L363 985L364.5 982Q369.3 982.8 370 979.5L370 938.5L368.5 937L341.5 937L340 938.5L340 956.5L338.5 958L326.5 958L325 956.5L325 938.5L323.5 937L294.5 937L293 938.5Q294 944 290.5 945L233.5 945L231 942.5Q231.8 937.8 228.5 937L214.5 937L213 938.5Q214 944 210.5 945L202.5 945L201 946.5L201 956.5L199.5 958L187.5 958L186 956.5L186 938.5L184.5 937L157.5 937L156 938.5L156 980.5L157.5 982Q163.6 980.8 163 983.5L161.5 985L148.5 985L147 986.5Q148.3 991.8 145.5 993L143 991.5L144 987.5L140.5 985L129.5 985Q128.3 987.3 123.5 986L120.5 985L117.5 986L116.5 985L104.5 985L98 987.5L98 1056.5L95.5 1059Q91.8 1058.3 91 1060.5L91 1080.5L92.5 1082Q97 1081 98 1083.5L98 1118.5L99.5 1120L126.5 1120L128 1118.5L128 1017.5L129.5 1016L141.5 1016L143 1014.5Q141.8 1009.3 144.5 1008L147 1009.5Q148.8 1017.3 144.5 1019L132.5 1019L131 1020.5L131 1120.5L132.5 1122L144.5 1122L146 1123.5L145 1127.5L145 1153L143 1152.5L143 1125L129.5 1125L128.5 1124L99.5 1124L98 1125.5L98 1205.5L95.5 1208Q91 1207 90 1209.5Q88.3 1217.7 91 1221.5L90 1224.5L91 1227.5L90 1228.5L90 1236.5L99.5 1240L125.5 1240L128.5 1238L140.5 1238L143 1237L143 1211.5L145 1211L146 1239.5L144.5 1241L132.5 1241L131 1242.5L131 1320.5L132.5 1322L144.5 1322L146 1323.5L146 1354.5L147.5 1356L231.5 1356L233 1357.5L228.5 1360L171.5 1360L168.5 1359L164 1361.5Q164.8 1365.3 162.5 1366L159.5 1360L153.5 1359L152.5 1360L123.5 1360L120 1357.5L121.5 1356L140.5 1356L143 1353.5L143 1327.5L141.5 1326L129.5 1326L128 1324.5L128 1244.5L126.5 1243L99.5 1243L98 1244.5L98 1257.5L96.5 1259Q93.9 1259.8 95 1256.5L94 1255.5L94 1242.5L92.5 1241Q88 1242 87 1239.5L87 1209.5L85.5 1208L43.5 1208L42 1209.5L42 1238.5L39.5 1241Q35 1240 34 1242.5L35 1250.5L34 1253.5L35 1258.5L33.5 1261L31 1258.5L31 1239.5L38 1236.5L38 1205.5L39.5 1204L92.5 1204L94 1202.5L94 1086.5L92.5 1085Q88 1086 87 1083.5L87 1056.5L88.5 1055Q93 1056 94 1053.5L94 983.5L96.5 981L98.5 982L150.5 982L152 980.5L152 934.5L153.5 933Z M178 982L275.5 982L276 983.5L274.5 985L237.5 985L234.5 986L233.5 985L178 985L178 982Z M379 1008L382 1009.5Q380.8 1014.8 383.5 1016L395.5 1016L397 1017.5L397 1118.5L398.5 1120Q403 1119 404 1121.5L399.5 1124L383.5 1125L382 1126.5L383 1210.5L382 1211.5L382 1236.5L383.5 1238L396.5 1238L399.5 1240L424.5 1240Q426.5 1237 432.5 1238L435 1235.5Q434.3 1231.8 436.5 1231Q439.5 1232.5 438 1238.5L431 1242.5L431 1257.5L429.5 1259L428 1258.5L428 1244.5L426.5 1243L398.5 1243L397 1244.5L397 1323.5L394.5 1326L383.5 1326L382 1327.5L382 1354.5L383.5 1355L384.5 1356L402.5 1356L404 1357.5L400.5 1360L387.5 1360L384.5 1359L383.5 1360L362.5 1360L361 1361.5Q361.8 1365.3 359.5 1366L356.5 1360L347.5 1359L346.5 1360L295.5 1360L293 1358.5L296.5 1356L352.5 1356L355.5 1355L356.5 1356L377.5 1356L379 1354.5L379 1323.5L380.5 1322L391.5 1322L394 1319.5L394 1244.5L391.5 1241L380.5 1241L379 1239.5L379 1123.5L381.5 1121L386.5 1122L389.5 1121L391.5 1122L394 1119.5L394 1020.5L392.5 1019L380.5 1019L379 1017.5L379 1008Z M32.5 1296Q34.8 1295.3 34 1297.5L35 1298.5L35 1319.5L34 1321.5L42 1324.5L42 1354.5L43.5 1356L84.5 1356L87 1353.5Q86.3 1349.8 88.5 1349L91.5 1356L103.5 1356L105 1357.5Q103 1362 94.5 1360L91.5 1359L90.5 1360L15.5 1360L14 1361.5L14 1577.5L15.5 1579L104.5 1579L107 1576.5L107 1550.5L105.5 1549L74.5 1549L73 1547.5L74.5 1545L88.5 1546L92.5 1545L96.5 1546L97.5 1545L105.5 1545L107 1543.5L107 1471.5L105.5 1470L74.5 1470L73 1468.5L74.5 1467L104.5 1467L107 1464.5L107.5 1400L110 1402.5L110 1576.5L111.5 1578L140.5 1578L142 1576.5L142 1531.5L143.5 1530L169.5 1530L171 1531.5Q171.8 1534.1 168.5 1533L167.5 1534L147.5 1534L146 1535.5L146 1577.5L147.5 1579Q152 1578 153 1580.5L151.5 1582L109.5 1582L108 1583.5L108 1646.5L107 1649L104 1647.5L104 1639.5L105 1638.5L105 1585.5L102.5 1582L76.5 1582L75 1583.5L75 1719.5L72.5 1722Q66.2 1719.8 68 1725.5Q65.3 1727.3 67 1733.5L68 1734.5L68 1743.5L69.5 1745Q74 1744 75 1746.5L75 1951.5L72.5 1954Q68 1953 67 1955.5L68 1975.5L69.5 1977Q74 1976 75 1978.5L75 2080.5L76.5 2082Q81 2081 82 2083.5L75 2086.5L100 2186.5L102.5 2191L105.5 2192L129.5 2192Q131.8 2191.3 131 2187.5L126 2167L129 2168.5L134 2189.5L136.5 2192L219.5 2192L222 2189.5L222 2144.5L220.5 2143L188.5 2143L185 2142L185.5 2139L242.5 2139L245 2141.5L245 2190.5L246.5 2192L299.5 2192L302 2189.5L301 2176.5L302 2175.5L302 2161.5L301 2160.5L301 2152.5L303.5 2146L363.5 2146L365 2147.5L363.5 2149L339.5 2150Q338 2147.5 332.5 2149L331.5 2150L320.5 2150L319.5 2149L307.5 2149L305 2151.5L305 2190.5L306.5 2192L386.5 2192Q391.1 2189.1 392 2182.5L399 2154Q403 2152.6 401 2159.5L393 2190.5L394.5 2192L420.5 2192L424 2187.5Q424 2180.5 427 2176.5L439 2125.5L448 2094.5L449 2085Q444.4 2086.3 443 2083.5L444.5 2082L497.5 2082L499.5 2081L501 2085L454.5 2085L452 2087.5L451 2095.5L446 2110.5L440 2138.5L438 2141.5L438 2145.5L426 2189.5L426 2193.5L424.5 2195L241.5 2195L241 2194.5L241 2143.5L239.5 2142L226.5 2142L225 2143.5L225 2193.5L223.5 2195L99.5 2195L98 2193.5L98 2189.5L92 2169.5L86 2141.5L82 2130.5L78 2110.5L71 2087.5L71 1981.5L69.5 1980Q65 1981 64 1978.5L64 1950.5Q64.1 1949.4 69.5 1950L71 1948.5L71 1749.5L64 1746.5L64 1719.5L65.5 1718Q70.9 1718.6 71 1717.5L71 1583.5L69.5 1582L11.5 1582L10 1580.5L10 1356.5L10.5 1356L36.5 1356L38 1354.5L38 1327.5L31 1324.5L31 1297.5L32.5 1296Z M491 1297L494 1297.5L494 1324.5L486 1327.5L486 1354.5L487.5 1356L509.5 1356L511 1357.5L511 1580.5L509.5 1582L452.5 1582L451 1583.5L452 1589.5L451 1590.5L451 1599.5L452 1600.5L452 1663.5L451 1664.5L451 1673.5L453.5 1678Q455.8 1677.3 455 1679.5L456 1680.5L456 1857.5L457.5 1859Q462 1858 463 1860.5L463 1882.5L461.5 1884Q457 1883 456 1885.5L456 2047.5L459.5 2048Q460.7 2050.3 465.5 2049L467.5 2048L471.5 2049L474.5 2048L476.5 2049L478.5 2048L480.5 2049L481.5 2048L500.5 2048Q501.7 2050.3 506.5 2049L510 2048L509 2057.5L505.5 2065Q502.1 2065.9 504 2060.5L506 2053.5L504.5 2052L446.5 2052L445 2050.5Q446 2048 450.5 2049L453 2046.5L453 1882.5L454.5 1881Q459.3 1881.8 460 1878.5L460 1864.5L458.5 1863Q454 1864 453 1861.5L453 1683.5L451.5 1682L449 1680.5L449 1584.5L446.5 1582L419.5 1582L418 1583.5L418 1591.5L416.5 1593L415 1592.5L415 1580.5L416.5 1579L472.5 1579L475 1576.5Q474 1572 476.5 1571Q479 1572 478 1576.5L480.5 1579L505.5 1579L508 1576.5L508 1361.5L506.5 1360L441.5 1360Q440 1357.5 434.5 1359L433.5 1360L421.5 1360L420 1356L433.5 1356L435 1354.5Q434 1350 436.5 1349L439.5 1356L480.5 1356L483 1353.5L483 1324.5L484.5 1323L491 1322L491 1297Z M162.5 1382L164 1383.5L164 1407.5L165.5 1409L188.5 1409L191.5 1408L192.5 1409L206.5 1409L207.5 1408L239.5 1408L240.5 1409L261.5 1409L264 1406.5L264 1390L276.5 1389L280.5 1390L283.5 1389L288 1391.5L288 1404.5L289.5 1406L355.5 1406L358 1403.5L358 1383.5L359.5 1382L362.5 1389L366.5 1390L367.5 1389L375.5 1389L378 1391.5Q377 1396 379.5 1397L397.5 1397L400 1394.5Q399.3 1390.8 401.5 1390L476.5 1390L478 1391.5L478 1405.5L476.5 1407L475 1405.5L475 1394.5L473.5 1393L416.5 1393L415 1394.5L415 1493.5L417.5 1496Q421.3 1495.3 422 1497.5L415 1500.5L415 1521.5L411.5 1525L407.5 1526L369.5 1526L367 1525L368.5 1521L409.5 1521L411 1519.5L411 1393.5Q411 1392.5 406.5 1393L404 1392Q405.8 1398.1 402.5 1400L375.5 1400L374 1398.5Q375.3 1393.3 372.5 1392L370.5 1393L361 1393L361 1407.5L359.5 1409L338.5 1409Q337.3 1411.3 332.5 1410L331.5 1409L314.5 1409Q312.8 1411.7 306.5 1410L305.5 1409L287.5 1409L285.5 1410L284 1408.5L284 1393L270.5 1393L268.5 1392L267 1393.5L267 1410.5L265.5 1412L161.5 1412L160 1410.5L160 1394.5L158.5 1393Q152.2 1394.8 150.5 1392L147.5 1400L121.5 1400L120 1398.5L120 1393L115 1393L115 1390L123 1390L123 1394.5L125.5 1397L143.5 1397L147.5 1390Q157.6 1391.6 161 1386.5Q160.3 1382.8 162.5 1382Z M65.5 1389L77 1390.5L74.5 1393L48.5 1393L47 1394.5L47 1465.5L48.5 1467Q55.3 1465.2 57 1468.5L55.5 1470Q48.8 1468.3 47 1471.5L47 1483.5L44 1484L44 1391.5L45.5 1390L64.5 1390L65.5 1389Z M476.5 1423L478 1424.5L478 1472.5L479 1476.5L478 1477.5L478 1555Q473.5 1556.8 475 1551.5L472.5 1549L446.5 1549L445 1547.5L445 1500.5L443.5 1499Q438.3 1500.3 437 1497.5Q438 1495 442.5 1496L445 1493.5L445 1475.5L446.5 1474L472.5 1474L475 1471.5L475 1424.5L476.5 1423Z M449.5 1477L473.5 1477L475 1478.5L475 1543.5L473.5 1545L449.5 1545L448 1543.5L448 1478.5L449.5 1477Z M180.5 1496L240.5 1496L242 1497.5L242 1592.5L243.5 1594L262.5 1594L264 1595.5L265.5 1599L274.5 1599L276 1597.5L277.5 1594L336.5 1594L337 1593.5L337 1582.5L338 1580.5L337 1578.5L338.5 1577L380.5 1577L382 1575.5L382 1550.5L380.5 1549L364.5 1549L364 1547L366.5 1546L384.5 1546L386 1547.5L386 1575.5L385 1578.5L386 1583.5L382 1585L380.5 1581L342.5 1581L341 1582.5L341 1602.5L339.5 1604L336.5 1598L281.5 1598L277.5 1602L262.5 1602L259.5 1598L241.5 1598L239 1595.5L239 1501.5L236.5 1499L183.5 1499L182 1500.5L182 1524.5L179 1525L179 1497.5L180.5 1496Z M181.5 1571L183 1572.5L183 1583.5L185.5 1586L207.5 1586L209 1587.5L209 1625.5L211.5 1628L332.5 1628L333 1629.5L331.5 1631L294.5 1631L293 1632.5L293 1666.5L290.5 1669L184.5 1669L183 1670.5L183 1697.5L181.5 1699L180 1698.5L180 1583.5L178.5 1582L170.5 1582L169 1580.5L169.5 1579L177.5 1579L180 1576.5Q179 1572 181.5 1571Z M184.5 1589L203.5 1589L205 1590.5L205 1629.5L206.5 1631L288.5 1631L290 1632.5L290 1663.5L288.5 1665L194.5 1665L192.5 1666L188.5 1665L184.5 1666L183 1664.5L183 1590.5L184.5 1589Z M409.5 1631Q411.8 1630.3 411 1632.5Q413.2 1633.8 412 1638.5L413.5 1640Q417.3 1639.3 418 1641.5L418 1679.5L419.5 1681L423 1682.5L423 1724.5L421.5 1726L419 1724.5L417.5 1722L348.5 1722L347 1723.5L345.5 1726L344 1724.5L344 1638.5L347 1640.5L347 1717.5L348.5 1719L417.5 1719L419 1717.5L419 1685.5L417.5 1684L415 1683.5L415 1645.5L414 1643Q409.4 1644.3 408 1641.5L408 1632.5L409.5 1631Z M105 1742L108 1743.5L108 1758.5L109.5 1760L178.5 1760L180 1758.5L180 1743.5L181.5 1742L183 1743.5L183 1777.5L185.5 1780L205.5 1780L207 1781.5L208 1786.5L204.5 1788Q201.8 1786.8 204 1785.5L202.5 1783L181.5 1783L180 1781.5L180 1768.5L179 1763L109.5 1763L108 1764.5L108 1828.5L109.5 1830L184.5 1830L187 1831.5L183 1834.5L181.5 1838L177.5 1834L109.5 1834L105 1837.5L104 1831.5L105 1830.5L105 1765.5Q102.8 1764.3 104 1759.5L105 1758.5L105 1742Z M345.5 1742Q349.5 1743.5 348 1750.5L347 1753.5L349.5 1760L416.5 1760L419 1757.5L420 1754.5L420 1742L423 1743.5L423 1835.5L421.5 1837L417.5 1834L346.5 1834L343.5 1838L340.5 1833L311.5 1833L310 1831.5L311.5 1830L417.5 1830L419 1828.5L419 1764.5L417.5 1763L348.5 1763L347 1764.5L347 1781.5L345.5 1783L323.5 1783L322 1784.5Q322.5 1788.5 319.5 1789L306.5 1788L305.5 1789L290.5 1789L289 1786L314.5 1786L319 1783.5L320.5 1780L341.5 1780L344 1777.5L344 1743.5L345.5 1742Z M420.5 1853L423 1854.5L423 2047.5L424.5 2049Q429 2048 430 2050.5L428.5 2052L335.5 2052Q332.5 2050.5 335.5 2049Q341 2050 342 2046.5L342 1940.5L343.5 1939L345 1940.5L345 1949.5L346.5 1951L370.5 1951L372 1949.5L373 1946.5L373 1876.5L374.5 1875L416.5 1875L419 1872.5L420 1857.5L419 1854.5L420.5 1853Z M376.5 1878L417.5 1878L419 1879.5L419 2047.5L417.5 2049L412.5 2048L407.5 2049L405.5 2048Q404 2050.5 398.5 2049L396.5 2048L394.5 2049Q392.8 2046.3 386.5 2048Q384.7 2050.8 378.5 2049Q376.8 2046.3 370.5 2048L368.5 2049L364.5 2048L362.5 2049L361.5 2048L349.5 2048L346.5 2049L345 2047.5L345 1955.5Q346.3 1952.8 351.5 1954L353.5 1955L354.5 1954L375 1954L376 1941.5L375 1936.5L376 1935.5L376 1927.5Q373.5 1926 375 1920.5Q377.8 1918.8 376 1912.5Q373.2 1910.7 375 1904.5L376 1903.5L376 1888.5L375 1887.5L375 1879.5L376.5 1878Z M105 1854L108 1855.5L108 1870.5L109.5 1872L177.5 1872L180 1869.5L180 1854.5L181.5 1854L183 1855.5L183 1907.5L184.5 1909L200.5 1909L217.5 1903Q219 1908.5 227.5 1907L231.5 1904L235.5 1905L239 1908.5L236.5 1912L183.5 1912L182 1913.5L182 1997.5L179 1998L179 1876.5L177.5 1875L108.5 1875L108 1876.5L107 1879.5Q109.8 1881.2 108 1887.5Q105.2 1889.3 107 1895.5L108 1896.5L108 1943.5Q105.2 1945.3 107 1951.5L108 1952.5L108 1983.5Q105.2 1985.2 107 1991.5Q109.5 1993 108 1998.5L109.5 2000L176.5 2000L178 2001.5Q178.8 2004.1 175.5 2003L174.5 2004L109.5 2004L108 2005.5L106.5 2008L105 2006.5L105 1854Z M106.5 2024L108 2025.5L108 2080.5L109.5 2082L167.5 2082L168 2083.5L166.5 2085L109.5 2085L108 2086.5L114 2110.5Q112.5 2113.5 111 2110.5L106 2089.5L103.5 2085Q98.3 2086.3 97 2083.5Q98 2081 102.5 2082L105 2079.5L105 2025.5L106.5 2024Z"/>
  <path fill="#888890" fill-rule="evenodd" d="M163.5 983L165.5 985L233.5 985L236 986Q238 989 237 996.5L236 999.5L237.5 1001L250.5 1001L254.5 1004L257.5 1002L286.5 1002L289 999.5Q286.8 987.3 293.5 984L345.5 984L346.5 983L349.5 985L361.5 985L363.5 985L376.5 985L379 987.5L378 1006.5L379 1007.5L379 1017.5L380.5 1019L392.5 1019L394 1020.5L394 1119.5L391.5 1122L387.5 1121L384.5 1122L381.5 1121L379 1123.5L379 1239.5L380.5 1241L391.5 1241L393 1242.5L394 1244.5L394 1319.5L391.5 1322L380.5 1322L379 1323.5L379 1354.5L377.5 1356L356.5 1356L353.5 1355L352.5 1356L327.5 1356L326.5 1355L290.5 1355L289 1353.5L289 1341.5L285.5 1338L283.5 1339L235.5 1339L234 1340.5Q237.8 1343.7 236 1352.5L234 1357L231.5 1356L147.5 1356L146 1354.5L146 1323.5L144.5 1322L132.5 1322L131 1320.5L131 1242.5L132.5 1241L144.5 1241L146 1239.5L146 1222.5L147 1217.5L146 1216.5L146 1123.5L144.5 1122L132.5 1122L131 1120.5L131 1020.5L132.5 1019L144.5 1019L147 1016.5L146 992.5Q148.3 991.2 147 986.5L148.5 985L161.5 985L163.5 983Z M177.5 1015L346.5 1015L348 1016.5L349 1020.5L348 1023.5L349 1024.5L349 1032.5L348 1033.5L348 1044.5L350.5 1048L355.5 1047L358.5 1049Q359.5 1046 364.5 1047Q366.8 1047.8 366 1051.5L365 1052.5L365 1095.5L363.5 1097L351.5 1097L348 1099.5L348 1251.5L349.5 1253L353.5 1252L355.5 1254L361.5 1255L363 1256.5L365 1263.5L365 1294.5L362.5 1297L351.5 1297L350 1298.5L348 1301.5L348 1321.5L345.5 1324L242.5 1323L241.5 1324L178.5 1324L176 1321.5L176 1312.5Q178.8 1310.8 177 1304.5L171.5 1297L162.5 1298L160 1292.5L159 1281.5L160 1280.5L160 1272.5L157 1271L157 1253.5L158.5 1253Q159.8 1255.3 161 1252.5L162.5 1250Q164.2 1252.8 169.5 1252L174.5 1248L177 1248L176 1242.5L176 1230.5L177 1226.5L176 1225.5L176 1215.5L177 1210.5L176 1209.5L176 1198.5L177 1197.5L177 1169.5L176 1168.5L176 1160.5L177 1159.5L177 1145.5L176 1142.5L177 1139.5L176 1138.5L176 1100.5L172.5 1097L163.5 1098L160 1092.5L160 1079.5Q155.3 1077.5 157 1070L160 1068.5L160 1065L157 1064.5L157 1055.5L158 1053.5L157 1051.5Q159.8 1048.3 165.5 1048L167.5 1049L174.5 1044L176 1044.5L176 1016.5L177.5 1015Z"/>
</svg>
