<?xml version="1.0" encoding="UTF-8"?>
<svg xmlns="http://www.w3.org/2000/svg" viewBox="0 0 522 2220" width="522" height="2220">
  <path fill="#607088" fill-rule="evenodd" d="M234.5 1530L286.5 1530L290 1533.5L293.5 1538L296.5 1539L328.5 1539L329.5 1538L338.5 1538L339.5 1539L348.5 1539L350 1540.5L352 1557.5L351 1558.5L351 1577.5L352 1578.5L352 1618.5Q349.5 1620 351 1625.5L357 1633L448.5 1633L449 1634.5L451 1639.5L451 1765.5L450 1768.5Q452.2 1769.7 451 1774.5L450 1777.5L451 1781.5L450 1784.5L451 1785.5L451 1858.5L450 1862.5L451 1863.5L451 1934.5L450 1935.5L450 1943.5L451 1944.5L451 1974.5L447.5 1980L444.5 1981L386.5 1981L385.5 1980L342.5 1980L338.5 1977L335.5 1980L312.5 1980L311.5 1981L212.5 1981L209.5 1980L207.5 1981L206.5 1980L188.5 1980L184.5 1977L176.5 1980L76.5 1981L71 1977.5L71 1636.5L74.5 1633L163.5 1633L170 1626.5L171 1622.5L171 1540.5L172.5 1539L224.5 1539L231 1534.5L234.5 1530Z M331.5 1540L340.5 1541L346 1544.5Q347.3 1550.8 343.5 1552L338 1555.5L340 1563.5Q338.8 1568.3 331.5 1567L325.5 1558L314.5 1560Q310 1559 311 1552.5L314.5 1549L317.5 1549L326.5 1545L331.5 1540Z M312.5 1561Q322 1559 324 1564.5L324 1648.5L325.5 1650L347.5 1650L351 1652.5L352 1654.5L352 1930.5L347.5 1935L173.5 1935L169 1930.5L169 1655.5L174.5 1650L195.5 1650L197 1648.5L197 1565.5L199.5 1562L311.5 1562L312.5 1561Z M391.5 1778L397.5 1778Q403.7 1777.3 405 1781.5L405 1823.5L402.5 1828L391.5 1828L391 1824.5L390 1823.5L390 1793.5L391 1788.5Q388.3 1786.8 390 1780.5L391.5 1778Z M322.5 1938Q330.4 1938.6 333.5 1944L339.5 1944Q341.5 1941 347.5 1942L351 1947.5L343.5 1957Q339.7 1959.7 331.5 1958L327.5 1953L318 1945.5Q318.5 1940 322.5 1938Z"/>
  <path fill="#8ca0bc" fill-rule="evenodd" d="M331.5 1540L340.5 1541L346 1544.5Q347.3 1550.8 343.5 1552L338 1555.5L340 1563.5Q338.8 1568.3 331.5 1567L325.5 1558L314.5 1560Q310 1559 311 1552.5L314.5 1549L317.5 1549L326.5 1545L331.5 1540Z M129.5 1582L136.5 1583L140.5 1582L143 1587.5L143 1606.5L142 1609.5L143 1610.5L143 1628.5L145.5 1632L163.5 1632L164.5 1631L163.5 1633L74.5 1633L71.5 1636L71 1634.5L74.5 1631L115.5 1631L120.5 1632L126 1629.5L127 1626.5L127 1610.5Q124.7 1609.2 126 1604.5L127 1601.5L126 1600.5L126 1591.5Q128.2 1590.3 127 1585.5L129.5 1582Z M390.5 1582Q394.5 1581.5 395 1584.5L396 1594.5Q393.8 1595.8 395 1600.5L396 1605.5Q392.6 1608.1 394 1615.5L396 1625.5L395 1629.5Q396.4 1632.6 401.5 1632L402.5 1631L446.5 1631L447.5 1633L357 1632.5L374.5 1632L379 1628.5L380 1626.5L380 1592.5L379 1588.5L381.5 1583L389.5 1583L390.5 1582Z M391.5 1778L397.5 1778Q403.7 1777.3 405 1781.5L405 1823.5L402.5 1828L391.5 1828L391 1824.5L390 1823.5L390 1793.5L391 1788.5Q388.3 1786.8 390 1780.5L391.5 1778Z M322.5 1938Q330.4 1938.6 333.5 1944L339.5 1944Q341.5 1941 347.5 1942L351 1947.5L343.5 1957Q339.7 1959.7 331.5 1958L327.5 1953L318 1945.5Q318.5 1940 322.5 1938Z"/>
</svg>
